<svg xmlns="http://www.w3.org/2000/svg" viewBox="0 0 151 151"><defs><style>.cls-1{fill:#0f41f8;}.cls-2{fill:#fcfcfc;}</style></defs><g id="Layer_2" data-name="Layer 2"><g id="Layer_1-2" data-name="Layer 1"><circle class="cls-1" cx="75.5" cy="75.5" r="75.5"/><path class="cls-2" d="M79.74,81.37h6.55c4.1,0,6.14,1.44,6.14,4.33a5.46,5.46,0,0,1-2.16,4.58,9.74,9.74,0,0,1-6,1.65H75.41l-3.27,8.14q-5.36,13.49-11.19,19a20.32,20.32,0,0,1-14.55,5.54,18.7,18.7,0,0,1-13.72-5.46,18.42,18.42,0,0,1-5.51-13.64q0-12.9,12.38-19.89,7.56-4.2,20.78-4.21l7-.08,1.51-3.76A19.84,19.84,0,0,1,62,78.85a13.86,13.86,0,0,1-10.92-4.71q-4.16-4.71-4.15-12.41H39.68q-4.95,0-5-4.2a5.9,5.9,0,0,1,2-4.53,7.12,7.12,0,0,1,5-1.83h7.56a41.25,41.25,0,0,1,12.18-15A25.79,25.79,0,0,1,77,30.69a15.53,15.53,0,0,1,11,4A13.4,13.4,0,0,1,92.3,44.93q0,8.85-7.91,13.62-5.26,3.18-15.83,3.18H58.48v.89q0,5.66,6.63,5.66a12.2,12.2,0,0,0,6.06-1.77l2.34-1.37a10.88,10.88,0,0,1,5.22-1.77,5.73,5.73,0,0,1,4,1.46,4.87,4.87,0,0,1,1.59,3.76,13.58,13.58,0,0,1-1.24,4.46ZM63.07,91.93q-9.33,0-14.28,1.77a16.77,16.77,0,0,0-7.25,4.71,10.14,10.14,0,0,0-2.65,6.79A8.15,8.15,0,0,0,41.17,111a7.41,7.41,0,0,0,5.59,2.38A9.64,9.64,0,0,0,54,109.84q3.26-3.59,6.48-11.58ZM61.7,51.17h8.58q11,0,11-6a3.64,3.64,0,0,0-1.44-2.94,5.59,5.59,0,0,0-3.65-1.17,12.87,12.87,0,0,0-7.27,2.69A29.86,29.86,0,0,0,61.7,51.17Z"/><path class="cls-2" d="M108.18,82.3h5c3.72,0,5.57,1.31,5.57,3.93a5,5,0,0,1-2,4.2,8.93,8.93,0,0,1-5.51,1.5h-7a10.37,10.37,0,0,1-6.12-1.59A5,5,0,0,1,95.88,86a10.24,10.24,0,0,1,.93-3.71l7.3-18,.48-1.23c1.36-3.34,3.54-5,6.55-5a4.55,4.55,0,0,1,3.2,1.24,3.87,3.87,0,0,1,1.35,3,13.11,13.11,0,0,1-1.19,4.33ZM114,44a6.15,6.15,0,1,1,0,12.3A6.15,6.15,0,1,1,114,44Z"/></g></g></svg>